:SAMPLES-PER-SECOND 30
:FULLY-SPECIFIED
:DEGREES
108
root  -15.994 40.1975 11.2005 176.042 -34.9693 179.557
RightUpLeg  6.96394 -8.36263 -0.917989
RightLeg  13.2645 -1.42891 3.44038
RightFoot  -14.6321 -0.31122 -7.37136
RightToes  5.82063e-011 0 -3.6325e-017
Spine  4.89042 1.92538 15.1798
Spine1  9.94859 5.73555 -11.6166
HEad  -7.80193 -1.95217 -2.34133
LeftShoulder1  8.31754 -11.4778 -48.4569
LeftArm  -9.31997 21.938 -30.9547
LeftForeArm  28.6559 -3.67113 -5.23893
LeftHand  -0.244104 0.0205437 5.32207
RightShoulder  6.24396 10.2982 39.1457
RightArm  14.4342 16.4842 37.6827
RightForeArm  -0.53612 29.0022 6.32206
RightHand  -1.1279 2.44481 -16.8245
LeftUpLeg  -19.4375 9.25719 1.70853
LeftLeg  12.058 -0.148713 -1.02912
LeftFoot  0.336542 0.558865 -5.47056
LeftToes  1.2005e-010 6.1915e-012 3.32694e-011
109
root  -17.0137 40.0487 10.1398 176.102 -33.7499 179.447
RightUpLeg  9.75938 -8.66329 -1.99295
RightLeg  12.6015 0.455852 3.53037
RightFoot  -16.259 -0.391359 -6.61013
RightToes  5.82063e-011 0 -3.6325e-017
Spine  4.35758 2.27182 14.7485
Spine1  10.3539 6.16687 -12.1937
HEad  -8.16104 -1.23748 -2.35057
LeftShoulder1  8.37962 -11.5511 -48.5821
LeftArm  -8.61109 24.8658 -30.8799
LeftForeArm  30.2527 -3.25112 -5.36641
LeftHand  -0.244104 0.0205437 5.32207
RightShoulder  6.24022 10.3368 38.9992
RightArm  13.2162 17.8248 37.6976
RightForeArm  0.257616 30.8365 6.73667
RightHand  -1.06393 2.18893 -16.4066
LeftUpLeg  -17.0551 4.15379 4.64831
LeftLeg  -0.735803 8.33546 -4.63975
LeftFoot  0.342436 0.726637 -7.14269
LeftToes  1.2005e-010 6.1915e-012 3.32694e-011
110
root  -18.1382 39.7193 9.03266 175.858 -32.8819 179.701
RightUpLeg  12.1835 -9.21368 -2.9635
RightLeg  13.3437 2.34635 3.43476
RightFoot  -18.6215 -0.448231 -5.05913
RightToes  5.82063e-011 0 -3.6325e-017
Spine  3.87421 2.42453 14.574
Spine1  10.4282 6.2808 -12.4015
HEad  -8.43705 -0.606533 -2.25589
LeftShoulder1  8.34401 -11.5123 -48.4999
LeftArm  -8.1405 28.0753 -30.9765
LeftForeArm  31.2444 -4.43659 -5.55369
LeftHand  -0.244104 0.0205437 5.32207
RightShoulder  6.25248 10.355 39.027
RightArm  12.2577 18.2913 37.635
RightForeArm  1.08401 32.185 7.04024
RightHand  -0.982722 1.80545 -15.9609
LeftUpLeg  -16.7829 4.4483 4.92043
LeftLeg  -5.54176 12.4013 -6.16071
LeftFoot  -1.27765 0.64759 -7.21244
LeftToes  1.2005e-010 6.1915e-012 3.32694e-011
111
root  -19.2956 39.4235 7.93392 175.866 -32.6308 179.681
RightUpLeg  14.4931 -9.74197 -4.08894
RightLeg  14.0149 3.43752 2.99017
RightFoot  -20.0926 -0.413641 -3.61142
RightToes  5.82063e-011 0 -3.6325e-017
Spine  3.57601 2.37955 14.1549
Spine1  10.4844 6.338 -12.7023
HEad  -8.74839 -0.422727 -2.04641
LeftShoulder1  8.25857 -11.4285 -48.27
LeftArm  -8.12323 30.6907 -31.1622
LeftForeArm  30.9659 -5.59447 -5.63009
LeftHand  -0.244104 0.0205437 5.32207
RightShoulder  6.23119 10.2682 39.1515
RightArm  11.1611 17.568 37.4117
RightForeArm  1.69155 33.2405 7.28732
RightHand  -0.94226 1.6045 -15.7403
LeftUpLeg  -17.4695 4.3491 4.29843
LeftLeg  -4.13802 16.2398 -6.15
LeftFoot  -0.522074 0.427142 -4.57607
LeftToes  1.2005e-010 6.1915e-012 3.32694e-011
112
root  -20.5202 39.1449 6.7809 176 -32.1892 179.086
RightUpLeg  16.6779 -9.76563 -5.6232
RightLeg  15.3672 4.11248 2.15339
RightFoot  -20.9979 -0.312694 -2.05442
RightToes  5.82063e-011 0 -3.6325e-017
Spine  3.37334 2.65254 13.1603
Spine1  10.5972 6.65447 -12.6505
HEad  -9.13013 -0.642737 -1.69987
LeftShoulder1  8.16108 -11.2983 -48.1173
LeftArm  -8.3681 32.134 -31.1358
LeftForeArm  30.0283 -5.97899 -5.57573
LeftHand  -0.244104 0.0205437 5.32207
RightShoulder  6.28254 10.197 39.7311
RightArm  10.0263 15.7188 36.5047
RightForeArm  1.92537 33.8889 7.44861
RightHand  -0.968007 1.82014 -15.6971
LeftUpLeg  -18.6065 4.82185 2.90424
LeftLeg  1.62793 17.9302 -4.41661
LeftFoot  3.48198 0.0792324 -0.825027
LeftToes  1.2005e-010 6.1915e-012 3.32694e-011
113
root  -21.7717 38.9043 5.55761 176.324 -31.4281 177.474
RightUpLeg  18.579 -7.8766 -7.53035
RightLeg  17.7668 3.75438 1.17515
RightFoot  -21.3992 -0.00280771 1.60601
RightToes  5.82063e-011 0 -3.6325e-017
Spine  3.29518 3.25903 10.78
Spine1  10.6833 7.05511 -11.918
HEad  -9.32218 -0.896521 -1.27111
LeftShoulder1  8.06675 -11.0979 -48.2136
LeftArm  -8.36305 32.2906 -30.6133
LeftForeArm  29.4456 -5.72817 -5.53619
LeftHand  -0.244104 0.0205437 5.32207
RightShoulder  6.50825 10.29 40.9837
RightArm  9.2971 13.1761 35.094
RightForeArm  2.11629 33.0813 7.22
RightHand  -1.04772 2.31979 -15.8988
LeftUpLeg  -19.6646 8.93139 -0.47131
LeftLeg  8.6453 14.2469 -1.60336
LeftFoot  7.71952 -0.423024 2.27262
LeftToes  1.2005e-010 6.1915e-012 3.32694e-011
114
root  -22.9709 38.8163 4.36601 176.935 -31.1935 175.207
RightUpLeg  19.1452 -4.19769 -9.13016
RightLeg  22.1007 1.11996 0.257278
RightFoot  -19.372 0.352309 7.18355
RightToes  5.82063e-011 0 -3.6325e-017
Spine  3.42307 3.59432 7.49001
Spine1  10.5626 7.07481 -11.0219
HEad  -9.0156 -0.991402 -1.02065
LeftShoulder1  8.02788 -10.9409 -48.5026
LeftArm  -7.8652 31.216 -29.633
LeftForeArm  29.5385 -5.13199 -5.62198
LeftHand  -0.244104 0.0205437 5.32207
RightShoulder  6.78451 10.448 42.3389
RightArm  9.76116 10.412 34.4421
RightForeArm  1.21918 29.4122 6.22977
RightHand  -1.20135 3.02804 -16.6882
LeftUpLeg  -20.1912 14.4812 -5.169
LeftLeg  14.2117 8.07135 0.949408
LeftFoot  8.35193 -0.793247 4.3085
LeftToes  1.2005e-010 6.1915e-012 3.32694e-011
115
root  -24.1335 38.8998 3.28141 177.436 -31.5925 173.529
RightUpLeg  16.8819 -2.33532 -10.4391
RightLeg  30.2836 -1.60161 -1.28756
RightFoot  -12.3178 0.0211536 10.6037
RightToes  5.82063e-011 0 -3.6325e-017
Spine  3.70208 3.40889 5.2742
Spine1  10.0615 6.66957 -10.592
HEad  -8.30217 -0.941993 -1.32668
LeftShoulder1  8.09985 -10.9838 -48.7944
LeftArm  -7.25968 29.0444 -28.5952
LeftForeArm  30.0362 -4.61386 -5.75969
LeftHand  -0.244104 0.0205437 5.32207
RightShoulder  6.917 10.5123 43.0083
RightArm  9.88046 7.94707 35.2869
RightForeArm  -0.430216 22.1743 5.58921
RightHand  -1.37137 3.70581 -17.6495
LeftUpLeg  -19.3948 16.1066 -7.97753
LeftLeg  17.8033 5.78963 2.39755
LeftFoot  5.20123 -0.835689 5.52537
LeftToes  1.2005e-010 6.1915e-012 3.32694e-011
116
root  -25.2286 39.0818 2.32634 177.693 -31.6211 172.523
RightUpLeg  11.5056 -1.15766 -11.2297
RightLeg  41.3395 -3.67061 -3.73403
RightFoot  -0.755284 -0.823175 9.18784
RightToes  5.82063e-011 0 -3.6325e-017
Spine  4.22071 3.14217 4.22847
Spine1  9.51426 6.29695 -10.5681
HEad  -7.69595 -0.629323 -2.29941
LeftShoulder1  8.23195 -11.1822 -48.9232
LeftArm  -7.10271 26.1055 -27.9571
LeftForeArm  30.5141 -4.88823 -5.83273
LeftHand  -0.244104 0.0205437 5.32207
RightShoulder  6.95753 10.5792 43.0575
RightArm  2.87422 6.27861 36.4657
RightForeArm  4.93723 11.8906 7.66111
RightHand  -1.2983 3.38771 -17.2707
LeftUpLeg  -17.1261 15.5998 -8.90344
LeftLeg  19.1604 6.34678 2.79949
LeftFoot  1.5337 -0.679458 5.91845
LeftToes  1.2005e-010 6.1915e-012 3.32694e-011
117
root  -26.1861 39.2638 1.46907 177.843 -30.7225 171.45
RightUpLeg  4.79146 0.752609 -11.7814
RightLeg  51.8404 -3.96183 -5.72551
RightFoot  8.70536 -0.98602 5.82496
RightToes  5.82063e-011 0 -3.6325e-017
Spine  5.11408 3.18535 2.74361
Spine1  9.36491 6.08326 -10.3256
HEad  -7.64258 0.125299 -3.56148
LeftShoulder1  8.29529 -11.3298 -48.8099
LeftArm  -7.45637 22.7849 -27.818
LeftForeArm  30.4161 -6.44696 -5.8864
LeftHand  -0.244104 0.0205437 5.32207
RightShoulder  7.10758 10.8338 43.2119
RightArm  -3.79999 5.0539 36.9234
RightForeArm  13.1414 2.35815 7.83749
RightHand  -0.932486 1.78536 -15.1704
LeftUpLeg  -14.4838 16.4143 -9.6424
LeftLeg  19.2679 6.55546 2.70906
LeftFoot  -0.853762 -0.511172 5.6145
LeftToes  1.2005e-010 6.1915e-012 3.32694e-011
118
root  -27.094 39.4986 0.603875 177.475 -29.965 170.992
RightUpLeg  -1.2838 2.22993 -11.6802
RightLeg  59.5387 -3.22498 -6.38126
RightFoot  11.2002 -0.769095 4.21448
RightToes  5.82063e-011 0 -3.6325e-017
Spine  6.02585 3.03887 1.35971
Spine1  9.45441 5.51727 -9.2619
HEad  -8.13463 1.20778 -4.58424
LeftShoulder1  8.23881 -11.3229 -48.4982
LeftArm  -7.7243 19.2529 -27.8564
LeftForeArm  29.1301 -9.161 -5.92247
LeftHand  -0.244104 0.0205437 5.32207
RightShoulder  7.35427 11.1683 43.7208
RightArm  -4.66294 3.23269 36.516
RightForeArm  20.6566 -2.40624 6.69022
RightHand  -0.67836 0.556257 -13.3616
LeftUpLeg  -11.3439 16.4371 -9.37435
LeftLeg  18.8211 7.56621 2.19342
LeftFoot  -2.58725 -0.374676 5.09957
LeftToes  1.2005e-010 6.1915e-012 3.32694e-011
119
root  -28.0006 39.8065 -0.267712 176.694 -30.3952 171.573
RightUpLeg  -6.40783 2.01823 -10.786
RightLeg  63.6736 -2.54731 -6.18549
RightFoot  9.39258 -0.78182 4.64057
RightToes  5.82063e-011 0 -3.6325e-017
Spine  6.69627 2.27 0.785399
Spine1  9.57913 4.28683 -7.61293
HEad  -8.84149 2.28194 -5.16698
LeftShoulder1  8.12273 -11.231 -48.1094
LeftArm  -7.05685 15.6075 -27.7501
LeftForeArm  26.267 -12.794 -5.51353
LeftHand  -0.244104 0.0205437 5.32207
RightShoulder  7.45679 11.2569 44.0829
RightArm  -3.85356 -0.00427818 35.5902
RightForeArm  26.5453 -2.00985 6.41877
RightHand  -0.676331 0.584289 -13.2178
LeftUpLeg  -7.71636 14.8362 -8.27296
LeftLeg  17.4289 8.99409 1.41508
LeftFoot  -4.05934 -0.289919 4.94618
LeftToes  1.2005e-010 6.1915e-012 3.32694e-011
